<svg version="1.0" xmlns="http://www.w3.org/2000/svg"
 width="1000.000000pt" height="1000.000000pt" viewBox="0 0 1000.000000 1000.000000"
 preserveAspectRatio="xMidYMid meet">
<metadata>
Created by potrace 1.13, written by Peter Selinger 2001-2015
</metadata>
<g transform="translate(0.000000,1000.000000) scale(0.100000,-0.100000)"
fill="#000000" stroke="none">
<path d="M3895 8246 c-145 -29 -266 -85 -371 -175 -49 -41 -89 -90 -153 -186
-109 -164 -122 -173 -289 -185 -226 -17 -412 -100 -562 -250 -110 -110 -172
-220 -221 -391 -40 -135 -71 -175 -160 -201 -203 -60 -228 -70 -299 -117 -333
-220 -490 -646 -371 -1011 45 -138 42 -184 -13 -279 -119 -203 -148 -305 -150
-521 -1 -178 12 -243 75 -379 63 -137 185 -282 299 -357 l38 -25 -44 -107
c-253 -626 -138 -1311 304 -1817 211 -242 479 -399 795 -467 138 -29 419 -32
547 -5 422 91 768 336 945 670 257 483 137 1097 -280 1434 -98 79 -249 155
-370 185 -129 32 -344 32 -465 -1 -306 -82 -545 -294 -634 -562 -121 -363 44
-781 369 -935 112 -53 181 -67 314 -62 186 8 314 62 441 188 110 109 163 239
162 396 0 182 -95 360 -242 454 -228 146 -550 58 -664 -180 -29 -60 -31 -73
-31 -170 0 -97 2 -110 31 -170 39 -82 88 -134 140 -150 36 -11 47 -10 87 8 87
39 105 126 43 216 -48 70 -50 129 -6 180 40 45 87 66 149 66 127 0 220 -108
221 -256 0 -100 -40 -179 -120 -238 -81 -60 -150 -79 -258 -74 -108 6 -181 37
-256 112 -58 58 -119 167 -136 242 -15 65 -15 187 1 249 44 182 205 343 414
412 70 23 96 27 210 27 117 0 138 -3 210 -28 110 -38 176 -78 258 -155 171
-162 263 -362 274 -601 12 -261 -76 -490 -262 -675 -172 -172 -393 -284 -632
-320 -381 -58 -735 63 -1009 344 -296 304 -447 737 -404 1157 42 408 232 758
554 1018 282 228 584 361 936 412 161 23 461 16 614 -15 341 -69 677 -238 906
-456 88 -83 108 -95 157 -95 57 0 68 6 182 107 249 220 547 369 881 441 116
24 143 26 365 27 212 0 253 -3 355 -23 378 -77 711 -254 972 -516 225 -226
358 -485 413 -801 21 -120 20 -358 0 -483 -73 -435 -360 -839 -720 -1013 -329
-159 -686 -159 -1012 1 -289 142 -491 386 -547 662 -20 97 -21 275 -1 367 35
168 125 332 245 451 80 78 167 131 275 167 70 23 96 27 210 27 117 0 138 -3
210 -28 208 -72 362 -225 410 -407 19 -69 19 -189 0 -258 -36 -138 -136 -266
-247 -317 -57 -26 -73 -29 -168 -29 -94 0 -111 3 -160 27 -80 39 -135 90 -167
156 -23 47 -28 69 -27 127 1 79 19 127 66 180 89 102 245 100 315 -4 34 -50
30 -98 -11 -158 -41 -60 -50 -86 -42 -129 15 -76 99 -128 171 -104 47 16 119
99 146 168 60 158 22 331 -99 444 -94 89 -194 128 -323 128 -186 0 -351 -104
-435 -275 -111 -227 -72 -466 106 -646 83 -83 192 -145 305 -174 75 -19 231
-19 312 0 240 57 431 248 515 515 20 64 23 96 23 220 0 124 -3 156 -23 220
-121 384 -503 638 -927 617 -140 -7 -244 -34 -372 -97 -514 -252 -739 -917
-498 -1472 116 -268 387 -527 683 -652 535 -225 1133 -116 1544 282 317 306
492 678 528 1123 22 268 -32 582 -142 828 -16 35 -27 65 -26 66 2 2 38 30 81
64 87 69 190 193 241 291 19 36 47 106 62 155 25 82 27 105 27 245 0 127 -4
169 -21 232 -28 104 -84 231 -132 302 -55 82 -58 106 -21 228 42 142 55 235
48 345 -15 220 -100 419 -248 577 -111 119 -227 190 -377 230 -163 44 -199 72
-228 174 -56 202 -109 304 -219 421 -153 163 -336 249 -581 271 -160 15 -181
28 -276 170 -42 63 -101 139 -130 169 -304 311 -851 289 -1201 -48 -81 -77
-140 -157 -193 -261 l-39 -75 -5 -1360 c-3 -748 -2 -1370 2 -1382 4 -13 12
-23 17 -23 30 0 207 265 233 350 10 30 25 82 35 115 15 49 24 63 53 80 32 18
52 20 255 20 200 0 224 2 260 20 50 25 78 74 79 136 1 60 -23 96 -90 129 -47
24 -56 25 -266 26 -189 2 -222 4 -255 20 -26 13 -40 28 -45 49 -15 55 -14 415
1 467 20 70 59 103 154 132 134 42 238 106 352 221 179 179 282 408 273 606
-3 72 -5 78 -48 133 -24 32 -55 65 -68 74 -22 14 -26 13 -80 -25 -85 -60 -118
-108 -132 -195 -19 -118 -47 -199 -90 -265 -78 -118 -218 -223 -319 -239 l-41
-7 0 324 c0 246 4 341 15 394 42 201 204 381 407 452 92 33 241 37 329 10 123
-37 238 -143 288 -264 81 -197 118 -250 191 -272 27 -8 84 -10 182 -5 114 5
157 3 211 -10 129 -30 237 -101 323 -211 86 -111 115 -195 94 -271 -11 -39
-42 -74 -240 -272 -185 -185 -231 -236 -245 -274 -14 -38 -15 -52 -5 -82 23
-70 120 -125 198 -112 58 9 122 60 263 208 172 181 208 203 329 203 234 -2
451 -171 527 -412 22 -74 25 -96 21 -186 -7 -153 -55 -245 -140 -268 -22 -5
-202 -11 -430 -12 -340 -2 -406 0 -493 16 -123 22 -247 64 -321 108 -132 80
-234 225 -270 384 -45 200 -78 262 -150 285 -67 22 -127 -15 -164 -102 -20
-46 -22 -65 -18 -153 15 -314 254 -642 566 -775 187 -79 331 -95 817 -87 418
7 480 3 560 -42 124 -69 201 -272 175 -458 -21 -149 -101 -282 -214 -355 l-60
-39 -40 48 c-80 94 -142 157 -236 235 -297 250 -629 407 -1014 479 -141 27
-464 37 -617 20 -397 -45 -795 -210 -1097 -454 -45 -37 -85 -67 -87 -67 -2 0
-46 33 -97 73 -289 225 -603 365 -973 433 -118 21 -461 30 -591 15 -502 -58
-934 -267 -1288 -623 l-128 -130 -68 46 c-81 55 -160 137 -189 195 -54 105
-50 302 7 426 55 117 130 175 254 194 37 6 237 10 478 9 430 -1 503 3 658 43
338 85 602 370 678 732 18 86 18 151 0 211 -33 107 -108 156 -187 121 -67 -31
-93 -82 -130 -255 -45 -209 -151 -355 -320 -438 -170 -83 -269 -94 -799 -90
-373 3 -407 4 -435 21 -103 63 -141 276 -81 452 66 196 223 339 427 391 36 9
86 14 119 12 98 -7 140 -36 315 -214 180 -183 222 -211 303 -200 129 18 193
137 123 232 -33 46 -254 270 -358 365 -88 80 -118 138 -110 210 13 103 116
253 226 327 121 81 238 108 422 97 147 -8 190 2 245 59 29 31 52 72 83 149 51
126 86 182 149 238 282 251 789 60 898 -337 20 -76 29 -331 19 -568 l-7 -178
-37 7 c-58 10 -152 60 -212 114 -100 89 -168 215 -184 341 -10 84 -22 122 -49
158 -27 38 -132 122 -151 122 -18 0 -90 -81 -115 -130 -28 -55 -28 -155 0
-265 40 -156 117 -292 238 -417 105 -108 211 -178 349 -228 119 -43 138 -57
166 -120 19 -41 21 -61 19 -254 -3 -230 -11 -268 -58 -286 -16 -6 -115 -10
-238 -9 -237 2 -279 -5 -333 -55 -46 -42 -56 -109 -25 -179 33 -75 49 -79 311
-81 309 -1 312 -3 345 -199 23 -139 47 -195 108 -257 76 -77 128 -113 145 -99
11 10 13 236 11 1383 l-3 1371 -28 58 c-16 32 -56 95 -89 140 -144 194 -306
311 -515 373 -109 32 -290 41 -398 20z"/>
</g>
</svg>
